<?xml version="1.0" encoding="utf-8"?>
<!-- Generator: Adobe Illustrator 27.6.1, SVG Export Plug-In . SVG Version: 6.00 Build 0)  -->
<svg id="Layer_1" xmlns="http://www.w3.org/2000/svg" x="0px" y="0px"
	 viewBox="0 0 800 800">
<style type="text/css">
	.st0{fill:#FFFFFF;}
</style>
<g>
	<path class="st0" d="M566.47,245.44c-0.11,1.79,0.37,3.93-0.44,5.32c-5.26,9-10.76,17.87-16.26,26.73
		c-14.39,23.19-28.86,46.34-43.21,69.56c-3.03,4.91-5.52,10.16-8.55,15.08c-2.64,4.29-5.81,8.25-8.52,12.5
		c-1.74,2.72-2.96,5.77-4.63,8.53c-1.4,2.31-3.27,4.34-4.7,6.64c-21.83,35.05-43.63,70.12-65.4,105.2
		c-3.61,5.82-7.02,11.77-10.64,17.59c-7.8,12.53-14.85,25.64-23.72,37.36c-11.6,15.31-29.1,20.19-45.87,8.33
		c-5.5-3.89-9.61-9.86-14.05-15.14c-6.23-7.4-12.21-15.03-18.25-22.59c-3.68-4.61-7.2-9.34-10.93-13.9
		c-4.02-4.92-8.25-9.65-12.28-14.56c-6.3-7.67-12.49-15.43-18.77-23.12c-5.98-7.32-11.83-14.76-18.06-21.86
		c-6.84-7.79-11.12-16.45-11.03-27.01c0.01-1.29-0.47-2.59-0.73-3.89c0.01-0.2,0.02-0.4,0.02-0.6c0.5-0.51,1.3-0.94,1.45-1.54
		c1.99-7.77,5.48-14.6,11.93-19.64c0.28-0.19,0.55-0.38,0.83-0.58c5.94-4.07,12.22-6.71,19.68-7.03c7.16-0.31,13.71,0.62,19.72,4.6
		c0.68,0.45,1.29,1.01,1.93,1.52c0.45,0.2,0.9,0.41,1.35,0.61c8.69,7.87,17.39,15.73,26.06,23.61
		c11.07,10.05,22.15,20.09,33.15,30.22c3.08,2.83,6.6,4.94,10.5,6.05c1.46,0.41,3.9-0.66,5.15-1.85c4.03-3.84,7.79-7.97,11.5-12.12
		c5.17-5.78,10.19-11.69,15.3-17.53c10.68-12.19,21.37-24.38,32.08-36.54c4.41-5,8.92-9.9,13.34-14.9
		c9.05-10.25,18.05-20.54,27.11-30.79c0.98-1.11,2.15-2.03,3.24-3.04c0.27-0.2,0.54-0.4,0.8-0.6c5.33-6.23,10.63-12.48,15.99-18.68
		c2.5-2.89,5.94-5.29,7.51-8.6c2.49-5.23,7.49-7.7,10.88-11.83c0.2-0.2,0.4-0.39,0.61-0.59c1.79-2.05,3.59-4.1,5.38-6.15
		c0.2-0.2,0.4-0.39,0.6-0.59c2.23-2.8,4.34-5.69,6.72-8.36c3.2-3.6,6.59-7.02,9.9-10.52c0.2-0.2,0.4-0.39,0.6-0.59
		c2.19-2.76,4.26-5.62,6.6-8.25c3.23-3.64,6.67-7.09,10.02-10.63c0.2-0.2,0.4-0.39,0.6-0.59c1.8-2.05,3.59-4.11,5.39-6.16
		c0.19-0.19,0.38-0.38,0.57-0.58c3.79-6.3,7.42-7.89,13.63-5.96c1.51,1.19,3.01,2.38,4.52,3.57c0.29,0.79,0.59,1.58,0.88,2.37
		C566.12,244.43,566.3,244.93,566.47,245.44z"/>
	<path class="st0" d="M565.06,241.55c-1.51-1.19-3.01-2.38-4.52-3.57c0.01-0.12,0.02-0.35,0.02-0.35c0.63,0.01,1.26,0.03,1.9,0.06
		C561.22,240.38,567.47,238.06,565.06,241.55z"/>
	<path class="st0" d="M566.47,245.44c-0.18-0.51-0.35-1.02-0.53-1.53c0.59,0.22,1.18,0.44,1.76,0.66
		C567.3,244.86,566.88,245.15,566.47,245.44z"/>
	<path class="st0" d="M287.33,393.55c-0.45-0.2-0.9-0.41-1.35-0.61C286.43,393.14,286.88,393.35,287.33,393.55z"/>
	<path class="st0" d="M546.92,243.93c-0.19,0.19-0.38,0.38-0.57,0.58C546.54,244.31,546.73,244.12,546.92,243.93z"/>
	<path class="st0" d="M540.96,250.67c-0.2,0.2-0.4,0.39-0.6,0.59C540.56,251.06,540.76,250.86,540.96,250.67z"/>
	<path class="st0" d="M523.74,270.14c-0.2,0.2-0.4,0.39-0.6,0.59C523.34,270.53,523.54,270.34,523.74,270.14z"/>
	<path class="st0" d="M506.52,289.61c-0.2,0.2-0.4,0.39-0.6,0.59C506.12,290,506.32,289.81,506.52,289.61z"/>
	<path class="st0" d="M500.54,296.35c-0.2,0.2-0.4,0.39-0.61,0.59C500.13,296.74,500.34,296.55,500.54,296.35z"/>
	<path class="st0" d="M465.55,336.06c-0.27,0.2-0.53,0.4-0.8,0.6C465.01,336.46,465.28,336.26,465.55,336.06z"/>
	<path class="st0" d="M244.65,393.84c-0.28,0.19-0.55,0.38-0.83,0.58C244.09,394.23,244.37,394.04,244.65,393.84z"/>
	<path class="st0" d="M230.43,415.61c0,0.2,0,0.4-0.02,0.6c-0.18-0.18-0.36-0.35-0.53-0.53
		C230.07,415.65,230.25,415.63,230.43,415.61z"/>
</g>
</svg>
